<svg width="56" height="79" viewBox="0 0 56 79" fill="none" xmlns="http://www.w3.org/2000/svg">
<g clip-path="url(#clip0_14_48)">
<path d="M1.38668 18.9794C1.3594 18.8874 1.33494 18.7945 1.33118 18.6988L1.38668 18.9794Z" fill="#201600"/>
<path d="M49.857 65.6386C49.8457 66.7356 48.9332 67.6252 47.8297 67.6158C46.7347 67.6055 45.8325 66.684 45.8476 65.5917C45.8626 64.4957 46.7742 63.6108 47.8805 63.6174C48.9802 63.6249 49.8683 64.5323 49.857 65.6386Z" fill="#FCFCFC"/>
<path d="M19.7432 65.6593C19.7178 66.7525 18.7818 67.643 17.6886 67.6148C16.5936 67.5857 15.6952 66.6493 15.7244 65.5673C15.7554 64.4751 16.6839 63.5939 17.7808 63.6174C18.8768 63.6409 19.7686 64.5689 19.7432 65.6593Z" fill="white"/>
<path d="M44.5033 20.0163C41.4478 14.9153 34.7959 13.6711 30.0969 17.3307C29.8598 17.5155 29.7216 17.5334 29.4741 17.3372C25.1327 13.8925 18.8909 14.7427 15.5823 19.2187C12.8373 22.9318 13.1769 28.2251 16.3838 31.5291C20.73 36.0088 25.0875 40.4783 29.4271 44.9655C29.7056 45.2536 29.825 45.293 30.1233 44.9843C34.4497 40.5055 38.7912 36.0417 43.1298 31.5751C44.9285 29.7227 45.7733 27.4875 45.8241 25.4691C45.8222 23.1739 45.3556 21.4398 44.5033 20.0163Z" fill="#EA3518"/>
<path d="M57.8937 15.9203C57.8871 15.6313 57.8184 15.5553 57.5306 15.56C56.4647 15.5778 55.3979 15.5816 54.3321 15.559C53.9784 15.5525 53.8627 15.6313 53.8674 16.0123C53.8918 17.8411 53.952 19.6747 53.8655 21.4998C53.6999 24.9821 53.4431 28.4597 53.2239 31.9382C52.8203 38.351 52.4139 44.7628 52.0226 51.1756C52.0019 51.5134 51.9257 51.6138 51.5701 51.6138C38.3547 51.6026 25.1383 51.6007 11.9229 51.6138C11.4854 51.6148 11.3462 51.4796 11.2757 51.0705C10.809 48.3802 10.3227 45.6937 9.83633 43.0062C9.00096 38.3998 8.16276 33.7933 7.32175 29.1879C6.57292 25.0881 5.81751 20.9894 5.06493 16.8896L4.99249 16.4815L4.91723 16.0583L4.91629 16.0564L4.80528 15.4324C4.34433 12.8988 3.8749 10.3661 3.42805 7.82973C3.37255 7.51725 3.19004 7.56323 2.99343 7.56323C0.0141282 7.56136 -2.96423 7.56511 -5.94354 7.55479C-6.23799 7.55385 -6.34429 7.61766 -6.33771 7.93764C-6.31513 9.00081 -6.31231 10.0649 -6.33771 11.1281C-6.34617 11.4743 -6.26997 11.571 -5.90873 11.5672C-4.0743 11.5466 -2.23987 11.5719 -0.405439 11.5503C-0.0554862 11.5466 0.041409 11.6648 0.0969124 11.9773C0.46568 14.052 0.852321 16.123 1.23332 18.1958L1.33115 18.6988L1.38666 18.9794L1.49108 19.5152L1.49578 19.5405C1.75072 20.9922 2.00002 22.4448 2.26248 23.8945C3.14865 28.7787 4.03859 33.661 4.92946 38.5443C5.69616 42.7519 6.46944 46.9577 7.23332 51.1653C7.37819 51.9601 7.35561 51.9432 6.6256 52.2669C4.02824 53.4202 2.39701 55.3589 1.85514 58.1693C1.75543 58.6112 1.63407 59.3478 1.71027 60.2421C2.03388 64.0246 5.69804 66.9974 8.1082 67.4731C9.30575 67.7096 10.5137 67.6176 11.7178 67.6252C11.9596 67.6261 12.1007 67.674 12.2107 67.9207C13.2709 70.2901 15.1082 71.5851 17.7112 71.5954C20.3368 71.6057 22.1825 70.2976 23.2634 67.9207C23.3613 67.7059 23.4638 67.6252 23.7074 67.6261C29.7592 67.6327 35.81 67.6317 41.8617 67.6233C42.1195 67.6233 42.2333 67.7087 42.3396 67.9404C43.4168 70.2995 45.2615 71.5616 47.8608 71.6038C50.9483 71.6536 53.4177 69.4437 53.8674 66.3161C54.2625 63.5639 52.3979 60.6784 49.7131 59.8865C46.7103 59.0006 43.6294 60.3613 42.397 63.1585C42.223 63.5545 42.0226 63.623 41.6454 63.623C35.7037 63.6127 29.762 63.6118 23.8203 63.624C23.4788 63.6249 23.3528 63.502 23.2192 63.2101C22.175 60.9393 20.3707 59.7176 17.8862 59.6134C15.3942 59.5083 13.2089 60.9721 12.2126 63.2711C12.1355 63.4504 12.1091 63.6352 11.8156 63.624C11.0169 63.5949 10.2154 63.6399 9.4177 63.6024C7.06305 63.4917 5.27095 61.1026 5.80058 58.8102C6.25401 56.8499 7.79494 55.6253 9.82786 55.6253C23.7178 55.6235 37.6087 55.6244 51.4986 55.6235C51.921 55.6235 52.3434 55.6113 52.7667 55.6047C54.1976 55.5953 54.1976 55.5953 54.1976 55.5953C54.6181 55.6047 55.0405 55.6 55.46 55.6291C55.7413 55.6479 55.8043 55.5212 55.7771 55.2979C55.7761 55.2885 55.7752 55.2781 55.7733 55.2678C55.7733 55.2678 55.7733 55.2678 56 50.302L55.9991 50.3029C56.2531 46.9699 56.5776 42.5971 56.7225 40.2728C56.9567 36.5127 57.1712 32.7508 57.428 28.9927C57.7253 24.6396 57.9925 20.2865 57.8937 15.9203ZM47.8805 63.6174C48.9803 63.6249 49.8683 64.5323 49.857 65.6386C49.8457 66.7356 48.9332 67.6252 47.8297 67.6158C46.7347 67.6054 45.8326 66.684 45.8476 65.5917C45.8627 64.4957 46.7742 63.6108 47.8805 63.6174ZM15.7244 65.5673C15.7554 64.4751 16.6839 63.5939 17.7808 63.6174C18.8768 63.6409 19.7686 64.5689 19.7432 65.6593C19.7178 66.7525 18.7818 67.643 17.6886 67.6148C16.5936 67.5857 15.6952 66.6493 15.7244 65.5673Z" fill="#201600"/>
</g>
<defs>
<clipPath id="clip0_14_48">
<rect width="56" height="79" fill="white"/>
</clipPath>
</defs>
</svg>
